<mxfile host="app.diagrams.net" modified="2024-04-24T13:40:54.343Z" agent="Mozilla/5.0 (Macintosh; Intel Mac OS X 10_15_7) AppleWebKit/537.36 (KHTML, like Gecko) Chrome/124.0.0.0 Safari/537.36" etag="4kVpysSuS3qyUVi0YKC7" version="24.3.0" type="github">
  <diagram name="Page-1" id="AEMx_b3kepIulSfWkA_F">
    <mxGraphModel dx="746" dy="478" grid="1" gridSize="10" guides="1" tooltips="1" connect="1" arrows="1" fold="1" page="1" pageScale="1" pageWidth="827" pageHeight="1169" math="0" shadow="0">
      <root>
        <mxCell id="0" />
        <mxCell id="1" parent="0" />
        <mxCell id="RYm2yohbuZZW45nBT-EM-22" value="&lt;i&gt;Oeuvre&lt;/i&gt;" style="swimlane;fontStyle=1;align=center;verticalAlign=top;childLayout=stackLayout;horizontal=1;startSize=26;horizontalStack=0;resizeParent=1;resizeParentMax=0;resizeLast=0;collapsible=1;marginBottom=0;whiteSpace=wrap;html=1;" parent="1" vertex="1">
          <mxGeometry x="360" y="260" width="160" height="86" as="geometry" />
        </mxCell>
        <mxCell id="RYm2yohbuZZW45nBT-EM-23" value="+ titre : Texte" style="text;strokeColor=none;fillColor=none;align=left;verticalAlign=top;spacingLeft=4;spacingRight=4;overflow=hidden;rotatable=0;points=[[0,0.5],[1,0.5]];portConstraint=eastwest;whiteSpace=wrap;html=1;" parent="RYm2yohbuZZW45nBT-EM-22" vertex="1">
          <mxGeometry y="26" width="160" height="26" as="geometry" />
        </mxCell>
        <mxCell id="x663Jh06iC1V3ov5dvIi-10" value="+ titre : Texte" style="text;strokeColor=none;fillColor=none;align=left;verticalAlign=top;spacingLeft=4;spacingRight=4;overflow=hidden;rotatable=0;points=[[0,0.5],[1,0.5]];portConstraint=eastwest;whiteSpace=wrap;html=1;" vertex="1" parent="RYm2yohbuZZW45nBT-EM-22">
          <mxGeometry y="52" width="160" height="26" as="geometry" />
        </mxCell>
        <mxCell id="RYm2yohbuZZW45nBT-EM-24" value="" style="line;strokeWidth=1;fillColor=none;align=left;verticalAlign=middle;spacingTop=-1;spacingLeft=3;spacingRight=3;rotatable=0;labelPosition=right;points=[];portConstraint=eastwest;strokeColor=inherit;" parent="RYm2yohbuZZW45nBT-EM-22" vertex="1">
          <mxGeometry y="78" width="160" height="8" as="geometry" />
        </mxCell>
        <mxCell id="RYm2yohbuZZW45nBT-EM-26" value="Lieu" style="swimlane;fontStyle=1;align=center;verticalAlign=top;childLayout=stackLayout;horizontal=1;startSize=26;horizontalStack=0;resizeParent=1;resizeParentMax=0;resizeLast=0;collapsible=1;marginBottom=0;whiteSpace=wrap;html=1;" parent="1" vertex="1">
          <mxGeometry x="60" y="260" width="180" height="98" as="geometry" />
        </mxCell>
        <mxCell id="RYm2yohbuZZW45nBT-EM-27" value="+ localisationDeScene : Texte&lt;div&gt;+ codePostal : Numérique&lt;/div&gt;&lt;div&gt;+ logitude : Numérique&lt;/div&gt;&lt;div&gt;+ lattitude : Numérique&lt;/div&gt;" style="text;strokeColor=none;fillColor=none;align=left;verticalAlign=top;spacingLeft=4;spacingRight=4;overflow=hidden;rotatable=0;points=[[0,0.5],[1,0.5]];portConstraint=eastwest;whiteSpace=wrap;html=1;" parent="RYm2yohbuZZW45nBT-EM-26" vertex="1">
          <mxGeometry y="26" width="180" height="64" as="geometry" />
        </mxCell>
        <mxCell id="RYm2yohbuZZW45nBT-EM-28" value="" style="line;strokeWidth=1;fillColor=none;align=left;verticalAlign=middle;spacingTop=-1;spacingLeft=3;spacingRight=3;rotatable=0;labelPosition=right;points=[];portConstraint=eastwest;strokeColor=inherit;" parent="RYm2yohbuZZW45nBT-EM-26" vertex="1">
          <mxGeometry y="90" width="180" height="8" as="geometry" />
        </mxCell>
        <mxCell id="RYm2yohbuZZW45nBT-EM-30" value="SocieteDeProduction" style="swimlane;fontStyle=1;align=center;verticalAlign=top;childLayout=stackLayout;horizontal=1;startSize=26;horizontalStack=0;resizeParent=1;resizeParentMax=0;resizeLast=0;collapsible=1;marginBottom=0;whiteSpace=wrap;html=1;" parent="1" vertex="1">
          <mxGeometry x="640" y="260" width="160" height="60" as="geometry" />
        </mxCell>
        <mxCell id="RYm2yohbuZZW45nBT-EM-31" value="+ nom : Texte" style="text;strokeColor=none;fillColor=none;align=left;verticalAlign=top;spacingLeft=4;spacingRight=4;overflow=hidden;rotatable=0;points=[[0,0.5],[1,0.5]];portConstraint=eastwest;whiteSpace=wrap;html=1;" parent="RYm2yohbuZZW45nBT-EM-30" vertex="1">
          <mxGeometry y="26" width="160" height="26" as="geometry" />
        </mxCell>
        <mxCell id="RYm2yohbuZZW45nBT-EM-32" value="" style="line;strokeWidth=1;fillColor=none;align=left;verticalAlign=middle;spacingTop=-1;spacingLeft=3;spacingRight=3;rotatable=0;labelPosition=right;points=[];portConstraint=eastwest;strokeColor=inherit;" parent="RYm2yohbuZZW45nBT-EM-30" vertex="1">
          <mxGeometry y="52" width="160" height="8" as="geometry" />
        </mxCell>
        <mxCell id="RYm2yohbuZZW45nBT-EM-34" value="Realisateur" style="swimlane;fontStyle=1;align=center;verticalAlign=top;childLayout=stackLayout;horizontal=1;startSize=26;horizontalStack=0;resizeParent=1;resizeParentMax=0;resizeLast=0;collapsible=1;marginBottom=0;whiteSpace=wrap;html=1;" parent="1" vertex="1">
          <mxGeometry x="640" y="450" width="160" height="60" as="geometry" />
        </mxCell>
        <mxCell id="RYm2yohbuZZW45nBT-EM-35" value="+ nom : Texte" style="text;strokeColor=none;fillColor=none;align=left;verticalAlign=top;spacingLeft=4;spacingRight=4;overflow=hidden;rotatable=0;points=[[0,0.5],[1,0.5]];portConstraint=eastwest;whiteSpace=wrap;html=1;" parent="RYm2yohbuZZW45nBT-EM-34" vertex="1">
          <mxGeometry y="26" width="160" height="26" as="geometry" />
        </mxCell>
        <mxCell id="RYm2yohbuZZW45nBT-EM-36" value="" style="line;strokeWidth=1;fillColor=none;align=left;verticalAlign=middle;spacingTop=-1;spacingLeft=3;spacingRight=3;rotatable=0;labelPosition=right;points=[];portConstraint=eastwest;strokeColor=inherit;" parent="RYm2yohbuZZW45nBT-EM-34" vertex="1">
          <mxGeometry y="52" width="160" height="8" as="geometry" />
        </mxCell>
        <mxCell id="RYm2yohbuZZW45nBT-EM-38" value="Tournage" style="swimlane;fontStyle=1;align=center;verticalAlign=top;childLayout=stackLayout;horizontal=1;startSize=26;horizontalStack=0;resizeParent=1;resizeParentMax=0;resizeLast=0;collapsible=1;marginBottom=0;whiteSpace=wrap;html=1;" parent="1" vertex="1">
          <mxGeometry y="450" width="260" height="94" as="geometry" />
        </mxCell>
        <mxCell id="RYm2yohbuZZW45nBT-EM-39" value="+ dateDeDébut : Date&lt;div&gt;+ dateDeFin : Date&lt;/div&gt;" style="text;strokeColor=none;fillColor=none;align=left;verticalAlign=top;spacingLeft=4;spacingRight=4;overflow=hidden;rotatable=0;points=[[0,0.5],[1,0.5]];portConstraint=eastwest;whiteSpace=wrap;html=1;" parent="RYm2yohbuZZW45nBT-EM-38" vertex="1">
          <mxGeometry y="26" width="260" height="34" as="geometry" />
        </mxCell>
        <mxCell id="RYm2yohbuZZW45nBT-EM-40" value="" style="line;strokeWidth=1;fillColor=none;align=left;verticalAlign=middle;spacingTop=-1;spacingLeft=3;spacingRight=3;rotatable=0;labelPosition=right;points=[];portConstraint=eastwest;strokeColor=inherit;" parent="RYm2yohbuZZW45nBT-EM-38" vertex="1">
          <mxGeometry y="60" width="260" height="8" as="geometry" />
        </mxCell>
        <mxCell id="RYm2yohbuZZW45nBT-EM-41" value="+ determinerAnneeDeTournage() : Numérique" style="text;strokeColor=none;fillColor=none;align=left;verticalAlign=top;spacingLeft=4;spacingRight=4;overflow=hidden;rotatable=0;points=[[0,0.5],[1,0.5]];portConstraint=eastwest;whiteSpace=wrap;html=1;" parent="RYm2yohbuZZW45nBT-EM-38" vertex="1">
          <mxGeometry y="68" width="260" height="26" as="geometry" />
        </mxCell>
        <mxCell id="RYm2yohbuZZW45nBT-EM-42" value="SerieWeb" style="swimlane;fontStyle=1;align=center;verticalAlign=top;childLayout=stackLayout;horizontal=1;startSize=26;horizontalStack=0;resizeParent=1;resizeParentMax=0;resizeLast=0;collapsible=1;marginBottom=0;whiteSpace=wrap;html=1;" parent="1" vertex="1">
          <mxGeometry x="280" y="450" width="100" height="34" as="geometry" />
        </mxCell>
        <mxCell id="RYm2yohbuZZW45nBT-EM-44" value="" style="line;strokeWidth=1;fillColor=none;align=left;verticalAlign=middle;spacingTop=-1;spacingLeft=3;spacingRight=3;rotatable=0;labelPosition=right;points=[];portConstraint=eastwest;strokeColor=inherit;" parent="RYm2yohbuZZW45nBT-EM-42" vertex="1">
          <mxGeometry y="26" width="100" height="8" as="geometry" />
        </mxCell>
        <mxCell id="RYm2yohbuZZW45nBT-EM-46" value="SerieTv" style="swimlane;fontStyle=1;align=center;verticalAlign=top;childLayout=stackLayout;horizontal=1;startSize=26;horizontalStack=0;resizeParent=1;resizeParentMax=0;resizeLast=0;collapsible=1;marginBottom=0;whiteSpace=wrap;html=1;" parent="1" vertex="1">
          <mxGeometry x="280" y="502" width="100" height="34" as="geometry" />
        </mxCell>
        <mxCell id="RYm2yohbuZZW45nBT-EM-47" value="" style="line;strokeWidth=1;fillColor=none;align=left;verticalAlign=middle;spacingTop=-1;spacingLeft=3;spacingRight=3;rotatable=0;labelPosition=right;points=[];portConstraint=eastwest;strokeColor=inherit;" parent="RYm2yohbuZZW45nBT-EM-46" vertex="1">
          <mxGeometry y="26" width="100" height="8" as="geometry" />
        </mxCell>
        <mxCell id="RYm2yohbuZZW45nBT-EM-48" value="Telefilm" style="swimlane;fontStyle=1;align=center;verticalAlign=top;childLayout=stackLayout;horizontal=1;startSize=26;horizontalStack=0;resizeParent=1;resizeParentMax=0;resizeLast=0;collapsible=1;marginBottom=0;whiteSpace=wrap;html=1;" parent="1" vertex="1">
          <mxGeometry x="280" y="380" width="100" height="34" as="geometry" />
        </mxCell>
        <mxCell id="RYm2yohbuZZW45nBT-EM-49" value="" style="line;strokeWidth=1;fillColor=none;align=left;verticalAlign=middle;spacingTop=-1;spacingLeft=3;spacingRight=3;rotatable=0;labelPosition=right;points=[];portConstraint=eastwest;strokeColor=inherit;" parent="RYm2yohbuZZW45nBT-EM-48" vertex="1">
          <mxGeometry y="26" width="100" height="8" as="geometry" />
        </mxCell>
        <mxCell id="RYm2yohbuZZW45nBT-EM-50" value="LongMetrage" style="swimlane;fontStyle=1;align=center;verticalAlign=top;childLayout=stackLayout;horizontal=1;startSize=26;horizontalStack=0;resizeParent=1;resizeParentMax=0;resizeLast=0;collapsible=1;marginBottom=0;whiteSpace=wrap;html=1;" parent="1" vertex="1">
          <mxGeometry x="400" y="380" width="100" height="34" as="geometry" />
        </mxCell>
        <mxCell id="RYm2yohbuZZW45nBT-EM-51" value="" style="line;strokeWidth=1;fillColor=none;align=left;verticalAlign=middle;spacingTop=-1;spacingLeft=3;spacingRight=3;rotatable=0;labelPosition=right;points=[];portConstraint=eastwest;strokeColor=inherit;" parent="RYm2yohbuZZW45nBT-EM-50" vertex="1">
          <mxGeometry y="26" width="100" height="8" as="geometry" />
        </mxCell>
        <mxCell id="RYm2yohbuZZW45nBT-EM-52" value="&lt;i&gt;Serie&lt;/i&gt;" style="swimlane;fontStyle=1;align=center;verticalAlign=top;childLayout=stackLayout;horizontal=1;startSize=26;horizontalStack=0;resizeParent=1;resizeParentMax=0;resizeLast=0;collapsible=1;marginBottom=0;whiteSpace=wrap;html=1;" parent="1" vertex="1">
          <mxGeometry x="460" y="460" width="130" height="60" as="geometry" />
        </mxCell>
        <mxCell id="RYm2yohbuZZW45nBT-EM-53" value="+ saison : Numérique" style="text;strokeColor=none;fillColor=none;align=left;verticalAlign=top;spacingLeft=4;spacingRight=4;overflow=hidden;rotatable=0;points=[[0,0.5],[1,0.5]];portConstraint=eastwest;whiteSpace=wrap;html=1;" parent="RYm2yohbuZZW45nBT-EM-52" vertex="1">
          <mxGeometry y="26" width="130" height="26" as="geometry" />
        </mxCell>
        <mxCell id="RYm2yohbuZZW45nBT-EM-54" value="" style="line;strokeWidth=1;fillColor=none;align=left;verticalAlign=middle;spacingTop=-1;spacingLeft=3;spacingRight=3;rotatable=0;labelPosition=right;points=[];portConstraint=eastwest;strokeColor=inherit;" parent="RYm2yohbuZZW45nBT-EM-52" vertex="1">
          <mxGeometry y="52" width="130" height="8" as="geometry" />
        </mxCell>
        <mxCell id="x663Jh06iC1V3ov5dvIi-3" value="" style="endArrow=block;endSize=16;endFill=0;html=1;rounded=0;entryX=0.5;entryY=1;entryDx=0;entryDy=0;exitX=0.5;exitY=0;exitDx=0;exitDy=0;edgeStyle=orthogonalEdgeStyle;" edge="1" parent="1" source="RYm2yohbuZZW45nBT-EM-48" target="RYm2yohbuZZW45nBT-EM-22">
          <mxGeometry width="160" relative="1" as="geometry">
            <mxPoint x="70" y="396.5" as="sourcePoint" />
            <mxPoint x="230" y="396.5" as="targetPoint" />
          </mxGeometry>
        </mxCell>
        <mxCell id="x663Jh06iC1V3ov5dvIi-4" value="" style="endArrow=block;endSize=16;endFill=0;html=1;rounded=0;edgeStyle=orthogonalEdgeStyle;exitX=0.5;exitY=0;exitDx=0;exitDy=0;" edge="1" parent="1" source="RYm2yohbuZZW45nBT-EM-50">
          <mxGeometry width="160" relative="1" as="geometry">
            <mxPoint x="370" y="390" as="sourcePoint" />
            <mxPoint x="440" y="320" as="targetPoint" />
          </mxGeometry>
        </mxCell>
        <mxCell id="x663Jh06iC1V3ov5dvIi-5" value="" style="endArrow=block;endSize=16;endFill=0;html=1;rounded=0;exitX=0.5;exitY=0;exitDx=0;exitDy=0;edgeStyle=orthogonalEdgeStyle;" edge="1" parent="1" source="RYm2yohbuZZW45nBT-EM-52" target="RYm2yohbuZZW45nBT-EM-22">
          <mxGeometry width="160" relative="1" as="geometry">
            <mxPoint x="380" y="400" as="sourcePoint" />
            <mxPoint x="460" y="340" as="targetPoint" />
            <Array as="points">
              <mxPoint x="525" y="350" />
              <mxPoint x="440" y="350" />
            </Array>
          </mxGeometry>
        </mxCell>
        <mxCell id="x663Jh06iC1V3ov5dvIi-6" value="" style="endArrow=block;endSize=16;endFill=0;html=1;rounded=0;entryX=0;entryY=0.5;entryDx=0;entryDy=0;exitX=1;exitY=0.5;exitDx=0;exitDy=0;edgeStyle=orthogonalEdgeStyle;" edge="1" parent="1" source="RYm2yohbuZZW45nBT-EM-42" target="RYm2yohbuZZW45nBT-EM-53">
          <mxGeometry width="160" relative="1" as="geometry">
            <mxPoint x="350" y="466.5" as="sourcePoint" />
            <mxPoint x="510" y="466.5" as="targetPoint" />
          </mxGeometry>
        </mxCell>
        <mxCell id="x663Jh06iC1V3ov5dvIi-7" value="" style="endArrow=block;endSize=16;endFill=0;html=1;rounded=0;exitX=1;exitY=0.5;exitDx=0;exitDy=0;edgeStyle=orthogonalEdgeStyle;" edge="1" parent="1" source="RYm2yohbuZZW45nBT-EM-46">
          <mxGeometry width="160" relative="1" as="geometry">
            <mxPoint x="390" y="477" as="sourcePoint" />
            <mxPoint x="460" y="500" as="targetPoint" />
            <Array as="points">
              <mxPoint x="420" y="519" />
              <mxPoint x="420" y="500" />
            </Array>
          </mxGeometry>
        </mxCell>
        <mxCell id="x663Jh06iC1V3ov5dvIi-8" value="" style="endArrow=diamondThin;endFill=1;endSize=24;html=1;rounded=0;" edge="1" parent="1" source="RYm2yohbuZZW45nBT-EM-22" target="RYm2yohbuZZW45nBT-EM-30">
          <mxGeometry width="160" relative="1" as="geometry">
            <mxPoint x="460" y="300" as="sourcePoint" />
            <mxPoint x="620" y="300" as="targetPoint" />
          </mxGeometry>
        </mxCell>
        <mxCell id="x663Jh06iC1V3ov5dvIi-9" value="Produit" style="edgeLabel;html=1;align=center;verticalAlign=middle;resizable=0;points=[];" vertex="1" connectable="0" parent="x663Jh06iC1V3ov5dvIi-8">
          <mxGeometry x="-0.299" y="-1" relative="1" as="geometry">
            <mxPoint as="offset" />
          </mxGeometry>
        </mxCell>
        <mxCell id="x663Jh06iC1V3ov5dvIi-11" value="*" style="text;html=1;align=center;verticalAlign=middle;resizable=0;points=[];autosize=1;strokeColor=none;fillColor=none;" vertex="1" parent="1">
          <mxGeometry x="515" y="268" width="30" height="30" as="geometry" />
        </mxCell>
        <mxCell id="x663Jh06iC1V3ov5dvIi-12" value="" style="endArrow=none;html=1;rounded=0;" edge="1" parent="1" source="RYm2yohbuZZW45nBT-EM-26" target="RYm2yohbuZZW45nBT-EM-22">
          <mxGeometry width="50" height="50" relative="1" as="geometry">
            <mxPoint x="280" y="328" as="sourcePoint" />
            <mxPoint x="330" y="278" as="targetPoint" />
          </mxGeometry>
        </mxCell>
        <mxCell id="x663Jh06iC1V3ov5dvIi-13" value="" style="endArrow=none;html=1;rounded=0;entryX=0.5;entryY=0;entryDx=0;entryDy=0;exitX=1.002;exitY=0.361;exitDx=0;exitDy=0;exitPerimeter=0;" edge="1" parent="1" source="x663Jh06iC1V3ov5dvIi-10" target="RYm2yohbuZZW45nBT-EM-34">
          <mxGeometry width="50" height="50" relative="1" as="geometry">
            <mxPoint x="560" y="398" as="sourcePoint" />
            <mxPoint x="680" y="396" as="targetPoint" />
          </mxGeometry>
        </mxCell>
        <mxCell id="x663Jh06iC1V3ov5dvIi-14" value="Realise" style="edgeLabel;html=1;align=center;verticalAlign=middle;resizable=0;points=[];" vertex="1" connectable="0" parent="x663Jh06iC1V3ov5dvIi-13">
          <mxGeometry x="0.0594" y="1" relative="1" as="geometry">
            <mxPoint as="offset" />
          </mxGeometry>
        </mxCell>
        <mxCell id="x663Jh06iC1V3ov5dvIi-15" value="" style="endArrow=none;html=1;rounded=0;exitX=0.5;exitY=0;exitDx=0;exitDy=0;entryX=-0.002;entryY=0.361;entryDx=0;entryDy=0;entryPerimeter=0;" edge="1" parent="1" source="RYm2yohbuZZW45nBT-EM-38" target="x663Jh06iC1V3ov5dvIi-10">
          <mxGeometry width="50" height="50" relative="1" as="geometry">
            <mxPoint x="260" y="327" as="sourcePoint" />
            <mxPoint x="380" y="325" as="targetPoint" />
          </mxGeometry>
        </mxCell>
      </root>
    </mxGraphModel>
  </diagram>
</mxfile>
